<svg width="1024" height="500" viewBox="0 0 1024 500" fill="none" xmlns="http://www.w3.org/2000/svg">
  <defs>
    <linearGradient id="bg" x1="0" y1="0" x2="1024" y2="500" gradientUnits="userSpaceOnUse">
      <stop stop-color="#FFF4A8"/>
      <stop offset="0.5" stop-color="#F2E829"/>
      <stop offset="1" stop-color="#F2B949"/>
    </linearGradient>
    <radialGradient id="sun" cx="0" cy="0" r="1" gradientUnits="userSpaceOnUse" gradientTransform="translate(790 84) rotate(135) scale(286 286)">
      <stop stop-color="#FFF9DA"/>
      <stop offset="1" stop-color="#FFF9DA" stop-opacity="0"/>
    </radialGradient>
    <filter id="shadow" x="0" y="0" width="1024" height="500" filterUnits="userSpaceOnUse" color-interpolation-filters="sRGB">
      <feDropShadow dx="0" dy="18" stdDeviation="24" flood-color="#8A6316" flood-opacity="0.18"/>
    </filter>
  </defs>

  <rect width="1024" height="500" rx="0" fill="url(#bg)"/>
  <rect width="1024" height="500" fill="url(#sun)"/>

  <g opacity="0.14">
    <circle cx="865" cy="95" r="190" fill="#FFFBEA"/>
    <circle cx="865" cy="95" r="145" stroke="#F27430" stroke-width="2" stroke-dasharray="4 10"/>
    <circle cx="865" cy="95" r="108" stroke="#F27430" stroke-width="2" stroke-dasharray="3 9"/>
  </g>

  <g filter="url(#shadow)">
    <rect x="66" y="74" width="892" height="352" rx="34" fill="#FFFBEA" fill-opacity="0.76"/>
  </g>

  <circle cx="220" cy="250" r="114" fill="#F2E829" stroke="#EDD377" stroke-width="10"/>
  <circle cx="220" cy="250" r="94" fill="#FFF7B7"/>
  <path d="M220 156C176.922 156 142 190.922 142 234V250C142 293.078 176.922 328 220 328C263.078 328 298 293.078 298 250V234C298 190.922 263.078 156 220 156ZM220 185C246.51 185 268 206.49 268 233C268 259.51 246.51 281 220 281C193.49 281 172 259.51 172 233C172 206.49 193.49 185 220 185ZM220 300C187.863 300 161.505 276.177 158.508 244.862C171.486 261.757 194.279 273 220 273C245.721 273 268.514 261.757 281.492 244.862C278.495 276.177 252.137 300 220 300Z" fill="#F27430"/>

  <text x="370" y="185" fill="#1F1F1F" font-family="Arial, Helvetica, sans-serif" font-size="62" font-weight="800">Countpluse</text>
  <text x="370" y="242" fill="#5C5643" font-family="Arial, Helvetica, sans-serif" font-size="24" font-weight="600">
    A devotional japa counter for daily practice
  </text>
  <text x="370" y="285" fill="#5C5643" font-family="Arial, Helvetica, sans-serif" font-size="24" font-weight="600">
    with voice support, summaries, and customizable settings
  </text>

  <g>
    <rect x="370" y="325" width="150" height="48" rx="24" fill="#F27430"/>
    <text x="414" y="356" fill="#FFFFFF" font-family="Arial, Helvetica, sans-serif" font-size="22" font-weight="700">Android</text>
  </g>

  <g>
    <rect x="536" y="325" width="186" height="48" rx="24" fill="#FFF4A8" stroke="#EDD377" stroke-width="2"/>
    <text x="572" y="356" fill="#1F1F1F" font-family="Arial, Helvetica, sans-serif" font-size="22" font-weight="700">Play Release</text>
  </g>

  <g opacity="0.15">
    <text x="742" y="350" fill="#1F1F1F" font-family="Arial, Helvetica, sans-serif" font-size="34" font-weight="800" transform="rotate(-16 742 350)">RADHA</text>
    <text x="812" y="302" fill="#1F1F1F" font-family="Arial, Helvetica, sans-serif" font-size="28" font-weight="800" transform="rotate(14 812 302)">RAM</text>
    <text x="804" y="388" fill="#1F1F1F" font-family="Arial, Helvetica, sans-serif" font-size="30" font-weight="800" transform="rotate(10 804 388)">SHIV</text>
  </g>
</svg>
